<?xml version="1.0" standalone="no"?>
<!DOCTYPE svg PUBLIC "-//W3C//DTD SVG 20010904//EN"
 "http://www.w3.org/TR/2001/REC-SVG-20010904/DTD/svg10.dtd">
<svg version="1.0" xmlns="http://www.w3.org/2000/svg"
 width="512.000000pt" height="512.000000pt" viewBox="0 0 512.000000 512.000000"
 preserveAspectRatio="xMidYMid meet">
<metadata>
Created by potrace 1.14, written by Peter Selinger 2001-2017
</metadata>
<g transform="translate(0.000000,512.000000) scale(0.100000,-0.100000)"
fill="#000000" stroke="none">
<path d="M955 5071 c-3 -3 -15 -6 -26 -8 -11 -2 -30 -9 -42 -15 -12 -7 -24
-13 -27 -13 -28 -6 -109 -80 -336 -307 -147 -148 -271 -268 -276 -268 -4 0 -7
-4 -5 -9 1 -5 -15 -23 -37 -40 -21 -17 -36 -31 -32 -31 4 0 -6 -13 -21 -29
-32 -33 -42 -47 -62 -81 -76 -133 -59 -351 37 -460 18 -20 1352 -1357 1352
-1354 0 1 24 -23 53 -53 28 -30 57 -60 63 -66 7 -7 116 -115 243 -241 127
-126 232 -232 233 -235 2 -3 134 -135 293 -292 304 -300 332 -323 444 -349 71
-17 186 -8 241 19 52 25 68 22 95 -19 11 -16 23 -30 28 -30 4 0 7 -5 7 -12 0
-6 7 -18 15 -27 8 -9 26 -28 40 -43 14 -15 24 -29 23 -31 -3 -2 65 -90 82
-107 3 -3 25 -32 50 -65 25 -33 50 -65 55 -71 6 -6 21 -26 35 -44 14 -19 33
-42 43 -52 9 -10 17 -22 17 -27 0 -4 12 -22 28 -38 48 -52 117 -146 115 -155
-2 -4 4 -8 12 -8 8 0 15 -4 15 -9 0 -4 12 -24 28 -43 15 -19 36 -47 47 -62 11
-16 25 -33 30 -40 6 -6 26 -31 45 -56 19 -25 37 -47 40 -50 3 -3 21 -26 40
-52 42 -57 44 -57 195 -74 22 -3 58 -7 80 -9 22 -3 54 -7 70 -9 17 -3 55 -7
85 -11 30 -3 66 -8 80 -10 49 -7 116 -15 175 -21 33 -3 69 -8 80 -10 11 -2 45
-6 75 -9 30 -3 66 -8 80 -10 14 -2 50 -7 80 -10 l55 -6 -52 51 c-28 27 -50 50
-49 50 1 0 -75 77 -170 171 l-172 171 -48 -16 c-140 -47 -284 11 -350 143 -22
44 -27 68 -27 127 0 45 5 80 13 89 7 8 9 15 6 15 -12 0 51 84 82 111 103 88
277 80 378 -18 58 -56 84 -124 81 -214 -2 -45 -8 -83 -16 -92 -7 -9 -11 -23
-9 -31 3 -17 287 -306 300 -306 4 0 8 -7 8 -17 0 -9 2 -14 5 -11 3 3 33 -22
66 -56 l59 -61 -5 60 c-4 33 -8 71 -10 85 -2 14 -7 48 -10 75 -24 200 -37 306
-41 335 -2 14 -6 48 -9 75 -3 28 -7 64 -10 80 -2 17 -7 53 -10 80 -3 28 -8 68
-11 90 -4 22 -7 52 -8 67 0 14 -4 29 -8 33 -4 4 -5 12 -2 19 2 6 -19 29 -48
51 -29 22 -55 42 -58 45 -3 3 -34 27 -70 55 -36 27 -71 55 -78 62 -7 7 -16 13
-20 13 -4 0 -21 14 -39 30 -18 17 -36 30 -42 30 -5 0 -11 3 -13 8 -3 7 -43 41
-98 82 -18 14 -38 30 -44 35 -6 6 -29 23 -51 39 -22 17 -42 33 -45 36 -3 3
-32 26 -65 51 -164 124 -225 173 -225 181 0 4 -6 8 -12 8 -7 0 -33 18 -58 40
-25 22 -51 40 -57 40 -7 0 -13 4 -13 9 0 5 -16 19 -35 32 -19 13 -37 29 -39
36 -3 6 5 35 16 65 27 68 33 196 12 263 -29 97 -66 143 -362 438 -161 162
-294 291 -297 289 -3 -3 -5 -1 -5 5 0 12 -469 481 -475 474 -3 -2 -5 3 -5 12
0 10 -7 17 -16 17 -8 0 -14 3 -11 8 4 9 -441 451 -448 444 -3 -3 -5 -1 -5 4 0
12 -889 906 -952 957 -25 21 -50 37 -57 37 -6 0 -11 5 -11 12 0 6 -3 8 -7 5
-3 -4 -15 1 -26 10 -10 10 -20 16 -21 14 0 -2 -19 2 -41 7 -40 11 -191 13
-200 3z"/>
</g>
</svg>
